<svg xmlns="http://www.w3.org/2000/svg" xmlns:xlink="http://www.w3.org/1999/xlink" viewBox="0 0 344.78 367.61"><defs><style>.cls-1{isolation:isolate;}.cls-2,.cls-4{fill:#fff;}.cls-2{opacity:0.2;mix-blend-mode:screen;}.cls-3{mix-blend-mode:overlay;fill:url(#linear-gradient);}</style><linearGradient id="linear-gradient" x1="12.81" y1="77.27" x2="103.25" y2="77.27" gradientTransform="matrix(1, 0.03, 0, 1, 0, -2)" gradientUnits="userSpaceOnUse"><stop offset="0.42" stop-color="#c0f0ff"/><stop offset="0.44" stop-color="#c5f1ff"/><stop offset="0.47" stop-color="#d5f5ff"/><stop offset="0.5" stop-color="#eefbff"/><stop offset="0.51" stop-color="#fff"/></linearGradient></defs><title>Artboard 1</title><g class="cls-1"><g id="OBJECTS"><g id="MUSIC_2" data-name="MUSIC 2"><path class="cls-2" d="M97.33,113.12,13.05,64.81A4.17,4.17,0,0,1,11,61.22V44.76a3.89,3.89,0,0,1,5.9-3.32l84.28,48.31a4.15,4.15,0,0,1,2.1,3.59V109.8A3.88,3.88,0,0,1,97.33,113.12Z"/><path class="cls-3" d="M101.15,89.75,16.87,41.44a3.94,3.94,0,0,0-4.06,0,3.94,3.94,0,0,1,3.22.35l84.28,48.31a4.15,4.15,0,0,1,2.1,3.59v16.46a3.8,3.8,0,0,1-1.84,3.3,3.81,3.81,0,0,0,2.68-3.68V93.34A4.17,4.17,0,0,0,101.15,89.75Z"/><path class="cls-4" d="M69.57,95.72l-1-.63V74.78l1,.63Z"/><path class="cls-4" d="M49.84,82.47l-1-.64V63.3l1,.63Z"/><path class="cls-4" d="M67.06,76.41l1,.62V92.17l-1-.62Z"/><path class="cls-4" d="M33.68,55.9l1,.62v14.3l-1-.61Z"/><path class="cls-4" d="M39.75,60.41l1,.63V73.92l-1-.63Z"/><path class="cls-4" d="M61,73.88l1,.63v12.6l-1-.64Z"/><path class="cls-4" d="M71.09,92.82l-1-.63V79.59l1,.64Z"/><path class="cls-4" d="M74.64,82.29l1,.62V95.79l-1-.62Z"/><path class="cls-4" d="M83.72,88l1,.62v12.93l-.5-.31-.48-.3Z"/><path class="cls-4" d="M26.09,52.54l1,.63V64.7l-1-.63Z"/><path class="cls-4" d="M38.2,71.21V60.58l1,.65V71.85Z"/><path class="cls-4" d="M73.12,82.45l1,.63V93.75l-1-.63Z"/><path class="cls-4" d="M32.16,56.78l1,.61V68.06l-1-.62Z"/><path class="cls-4" d="M80.18,96.93l-1-.64v-9.4l1,.63Z"/><path class="cls-4" d="M21.56,50.76l1,.63V60.8l-1-.63Z"/><path class="cls-4" d="M80.69,87.81l1,.63v9.4l-1-.62Z"/><path class="cls-4" d="M56.46,72.63l1,.62v9.41l-1-.62Z"/><path class="cls-4" d="M36.19,69.05l-1-.63V59.59l1,.63Z"/><path class="cls-4" d="M77.14,94.37l-1-.62V85.63l1,.62Z"/><path class="cls-4" d="M42.24,72.5l-1-.62V63.75l1,.62Z"/><path class="cls-4" d="M36.69,61.45l1,.64v7l-1-.63Z"/><path class="cls-4" d="M71.6,83.34l1,.63v7l-1-.64Z"/><path class="cls-4" d="M30.64,57.66l1,.63v7l-1-.64Z"/><path class="cls-4" d="M66.53,87.16l-1-.62v-7l1,.62Z"/><path class="cls-4" d="M46.8,74.41l-1-.63V67.54l1,.63Z"/><path class="cls-4" d="M54.36,79.17l-1-.63V72.28l1,.63Z"/><path class="cls-4" d="M29.12,57.57l1,.63v5.27l-1-.63Z"/><path class="cls-4" d="M65,85.36l-1-.63V79.45l1,.63Z"/><path class="cls-4" d="M25.58,60.63l-1-.62V54.74l1,.62Z"/><path class="cls-4" d="M21.05,56.86l-1-.63v-3.4l1,.63Z"/><path class="cls-4" d="M28.63,58.21v3.38l-1-.63V57.58Z"/><path class="cls-4" d="M60.48,81.58l-1-.63v-3.4l1,.63Z"/><path class="cls-4" d="M44.28,68l1,.62V72l-1-.63Z"/><path class="cls-4" d="M48.31,73.94l-1-.64V69.9l1,.63Z"/><path class="cls-4" d="M82.21,91.77l1,.63v3.4l-1-.63Z"/><path class="cls-4" d="M78.67,93l-1-.64V88.94l1,.63Z"/><path class="cls-4" d="M55.94,78.72l-1-.63v-3.4l1,.63Z"/><path class="cls-4" d="M86.77,94.64l1,.62v3.4c-.33-.2-.64-.39-1-.62Z"/><path class="cls-4" d="M89.27,99.62l-1-.64v-3.4l1,.63Z"/><path class="cls-4" d="M62.51,82.82V79.43l1,.64v3.39Z"/><path class="cls-4" d="M52.84,76.79l-1-.62V72.78l1,.61Z"/><path class="cls-4" d="M58,80v-3.4l1,.63v3.4Z"/><path class="cls-4" d="M86.24,94.32v3.39l-1-.63V93.69Z"/><path class="cls-4" d="M23.07,54.71l1,.62v3.4l-1-.61Z"/><path class="cls-4" d="M42.77,67.05l1,.62v3.4l-1-.62Z"/><path class="cls-4" d="M51.33,75.84l-1-.62v-3.4l1,.61Z"/></g></g></g></svg>